<?xml version="1.0" encoding="UTF-8" standalone="no"?>
<svg
   xmlns:dc="http://purl.org/dc/elements/1.1/"
   xmlns:cc="http://creativecommons.org/ns#"
   xmlns:rdf="http://www.w3.org/1999/02/22-rdf-syntax-ns#"
   xmlns:svg="http://www.w3.org/2000/svg"
   xmlns="http://www.w3.org/2000/svg"
   xmlns:sodipodi="http://sodipodi.sourceforge.net/DTD/sodipodi-0.dtd"
   xmlns:inkscape="http://www.inkscape.org/namespaces/inkscape"
   width="49.865761mm"
   height="56.416065mm"
   viewBox="0 0 49.865761 56.416065"
   version="1.1"
   id="svg8"
   inkscape:version="1.0.2 (e86c870879, 2021-01-15)"
   sodipodi:docname="logo.svg"
   inkscape:export-filename="/home/emad/Downloads/mau.png"
   inkscape:export-xdpi="96"
   inkscape:export-ydpi="96">
  <defs
     id="defs2" />
  <sodipodi:namedview
     id="base"
     pagecolor="#fafbfc"
     bordercolor="#666666"
     borderopacity="1.0"
     inkscape:pageopacity="0"
     inkscape:pageshadow="2"
     inkscape:zoom="1"
     inkscape:cx="-63.442799"
     inkscape:cy="187.8909"
     inkscape:document-units="mm"
     inkscape:current-layer="layer1"
     inkscape:document-rotation="0"
     showgrid="false"
     fit-margin-top="5"
     fit-margin-left="5"
     fit-margin-right="5"
     fit-margin-bottom="5"
     lock-margins="true"
     inkscape:window-width="1280"
     inkscape:window-height="1400"
     inkscape:window-x="1280"
     inkscape:window-y="40"
     inkscape:window-maximized="0" />
  <metadata
     id="metadata5">
    <rdf:RDF>
      <cc:Work
         rdf:about="">
        <dc:format>image/svg+xml</dc:format>
        <dc:type
           rdf:resource="http://purl.org/dc/dcmitype/StillImage" />
        <dc:title></dc:title>
      </cc:Work>
    </rdf:RDF>
  </metadata>
  <g
     inkscape:label="Layer 1"
     inkscape:groupmode="layer"
     id="layer1"
     transform="translate(-21.55239,-39.599519)">
    <path
       d="m 28.764744,91.015585 q -0.08676,-0.737452 0.04338,-1.518283 0.173518,-0.82421 0.650692,-1.344764 0.520554,-0.563934 1.431524,-0.563934 0.303656,0 0.607313,0.04338 0.303656,0 0.607313,0.130138 l 0.82421,-0.780831 q 0.173518,-0.347036 0.433795,-1.778559 0.260277,-1.431524 0.563934,-3.296842 0.303656,-1.865319 0.520554,-3.47036 -0.173518,-0.216898 -0.824211,-1.084488 -0.607313,-0.86759 -1.214626,-2.038836 -0.563933,-1.214627 -0.563933,-2.385873 0,-0.607313 0.260277,-1.73518 0.303656,-1.127867 0.650692,-2.385873 0.390416,-1.431523 0.694072,-2.863047 0.347036,-1.431523 0.347036,-2.385872 0,-1.73518 -0.520554,-2.819668 -0.520554,-1.084487 -1.214626,-1.561662 -0.650692,-0.477174 -1.127867,-0.477174 h -1.995457 l -1.474903,-1.474904 0.173518,-0.954349 Q 27.506739,56.138466 27.289841,55.964948 27.072944,55.79143 26.899426,55.661291 L 26.55239,53.18866 32.278484,49.241125 h 0.173518 q 0.173518,-1.865318 0.563933,-3.123324 0.433795,-1.301385 1.258006,-1.518282 0.477174,0.04338 0.910969,0.82421 0.433795,0.737452 0.737452,1.865319 0.390415,-0.824211 0.86759,-1.344765 0.477174,-0.563933 0.954349,-0.563933 0.477174,0 0.737451,0.780831 0.303657,0.780831 0.433795,1.908698 0.130139,1.127867 0.130139,2.212354 v 0.563934 q 0.08676,0.130138 0.173518,0.260277 0.08676,0.130138 0.130138,0.216897 0.173518,0.347036 0.477175,1.301385 0.347036,0.954349 0.737451,2.168975 0.433795,1.214626 0.737452,2.255734 l 0.130139,0.477175 q 0.173518,0.824211 0.520554,1.821939 0.390415,0.997729 1.171246,1.474903 0.347036,0.216898 1.127867,0.477175 0.780831,0.260277 1.73518,0.563933 1.388144,0.433795 2.993186,1.041108 1.648421,0.563934 2.863047,1.301385 1.258005,0.824211 2.429252,1.908698 1.214626,1.041108 2.255734,2.299114 1.648421,-0.954349 3.383601,-1.431524 1.77856,-0.520554 3.643878,-0.520554 1.474903,0 2.168975,0.260277 0.694072,0.260277 0.694072,1.171247 0,0.82421 -0.86759,1.084487 -0.86759,0.260277 -2.125595,0.303657 -1.474903,0.08676 -2.906427,0.477174 -1.388144,0.347036 -2.516011,0.954349 1.648421,2.689529 2.60277,6.029751 0.954349,3.296842 0.954349,6.9841 0,1.952077 -0.173518,3.860775 -0.130138,1.865319 -0.737451,3.383602 H 44.424744 l -1.561662,-0.477175 q -0.347036,0.260277 -0.780831,0.520554 h -2.949806 q 0,-0.520554 0.08676,-1.344765 0.08676,-0.86759 0.563933,-1.518282 0.520554,-0.694072 1.77856,-0.694072 0.824211,0 1.344765,0.216897 0.520554,0.216898 0.737451,0.477175 l 6.767202,-0.563934 q -0.216897,-0.260277 -0.86759,-0.997728 -0.650692,-0.737452 -1.431523,-1.77856 -0.737452,-1.084487 -1.388144,-2.255734 -0.650693,-1.171246 -0.86759,-2.255734 -1.821939,-0.607313 -3.730637,-0.86759 -1.908699,-0.260277 -3.383602,-0.303656 v 0.130138 h -0.04338 v 0.607313 q -0.390416,0.91097 -0.86759,2.038837 -0.477175,1.084487 -0.91097,2.082216 -0.433795,0.997728 -0.607313,1.474903 -0.173518,0.477174 -0.477174,1.388144 -0.303657,0.910969 -0.650693,1.908698 -0.347036,0.997728 -0.607313,1.77856 l -1.344764,0.08676 -0.694072,0.390415 z m 4.511468,-41.817839 1.952078,-0.08676 q 0.04338,-0.08676 0.04338,-0.173518 0.04338,-0.08676 0.08676,-0.216898 -0.173518,-1.214626 -0.433795,-2.125595 -0.260277,-0.954349 -0.563933,-0.954349 -0.477175,0 -0.737452,0.997728 -0.216897,0.997729 -0.347036,2.559391 z m -3.687257,40.993628 h 2.732908 l 0.694072,-0.390415 h 1.084488 q 0.130138,-0.433795 0.390415,-1.301385 0.260277,-0.91097 0.563934,-1.821939 0.303656,-0.954349 0.477174,-1.518283 0.173518,-0.520554 0.563934,-1.431523 0.433795,-0.954349 0.910969,-2.038837 0.477175,-1.084487 0.86759,-1.952077 v -3.296842 h 0.86759 v 1.865318 q 1.561662,0.04338 3.383602,0.303657 1.865318,0.216897 3.643878,0.737451 0,-0.997728 0.520554,-2.255734 0.520554,-1.301385 1.648421,-2.255734 1.127867,-0.954349 2.993185,-1.041108 0.91097,-1.431524 2.125596,-2.689529 1.214626,-1.258006 2.689529,-2.212355 Q 54.792445,67.677413 53.707957,66.723064 52.62347,65.725336 51.408844,64.944505 50.194218,64.163674 48.632556,63.64312 47.070894,63.079186 45.726129,62.688771 44.728401,62.341735 43.90419,62.081458 43.07998,61.821181 42.646185,61.560904 41.691836,60.953591 41.258041,59.825724 40.824245,58.697857 40.607348,57.743507 L 40.43383,57.136194 v 0.04338 q -0.347036,-1.041108 -0.824211,-2.516011 -0.477174,-1.474903 -0.780831,-2.342493 -0.04338,-0.04338 -0.173518,-0.260277 -0.08676,-0.260277 -0.130138,-0.390416 -0.08676,0.216898 -0.260277,0.433795 -0.130139,0.216898 -0.260277,0.390416 l -0.520554,-0.347036 q 0.260277,-0.347036 0.433795,-0.780831 0.216897,-0.433795 0.303656,-1.258006 0.04338,-0.780831 -0.04338,-1.6918 -0.04338,-0.91097 -0.173518,-1.561662 -0.130139,-0.650693 -0.347036,-0.650693 -0.433795,0 -0.824211,0.86759 -0.390415,0.86759 -0.780831,2.082216 -0.08676,0.173518 -0.216897,0.650693 -0.08676,0.433795 -0.260277,1.258005 l -0.824211,-0.173518 q 0.08676,-0.216897 0.130139,-0.433795 0.04338,-0.260277 0.08676,-0.477174 -0.650693,0 -1.344765,0.04338 -0.694072,0 -1.084487,0.04338 -0.216898,0.130138 -1.084488,0.737451 -0.86759,0.563934 -1.995457,1.301385 -1.127867,0.737452 -2.082216,1.388144 l 0.303657,1.77856 0.607313,0.607313 h 1.952077 v 0.82421 h -1.865318 l -0.08676,0.303657 0.910969,0.86759 h 1.73518 q 0.607313,0 1.474903,0.563934 0.91097,0.563933 1.561662,1.821939 0.694072,1.214626 0.694072,3.296842 0,0.954349 -0.390415,2.516011 -0.347036,1.518282 -0.737452,2.949806 -0.347036,1.214626 -0.607313,2.255734 -0.216897,1.041108 -0.216897,1.648421 0,0.954349 0.477174,1.952078 0.477175,0.997728 1.041108,1.821939 -0.08676,-0.737452 -0.173518,-1.605042 -0.08676,-0.86759 -0.08676,-1.77856 0,-1.648421 0.650693,-2.949806 0.650692,-1.344764 1.258005,-2.168975 l 0.694072,0.433795 q -0.563933,0.824211 -1.171246,2.082216 -0.607313,1.214626 -0.607313,2.60277 0,1.171247 0.173518,2.602771 0.173518,1.388144 0.347036,2.255734 -0.216898,1.344764 -0.433795,2.863047 -0.216898,1.474903 -0.477175,2.863047 -0.216897,1.344764 -0.433795,2.299113 -0.173518,0.91097 -0.303656,1.171247 l -1.388144,1.301385 h -0.260277 q -0.08676,-0.04338 -0.303657,-0.130139 -0.173518,-0.130138 -0.607313,-0.130138 -0.694072,0 -1.041108,0.347036 -0.303656,0.347036 -0.390415,0.780831 -0.08676,0.433795 -0.08676,0.650692 z m 3.817396,-36.48216 q -0.824211,0 -1.214626,-0.260277 -0.390416,-0.303657 -0.607313,-0.563934 0.08676,-0.216897 0.477174,-0.607313 0.433795,-0.433795 1.084488,-0.433795 0.737451,0 1.171246,0.390416 0.433795,0.347036 0.91097,0.737451 -0.303657,0.216898 -0.824211,0.477175 -0.477174,0.260277 -0.997728,0.260277 z m 0,-0.563934 q 0.433795,0 0.780831,-0.260277 -0.216898,-0.173518 -0.390416,-0.347036 -0.173518,-0.173518 -0.477174,-0.173518 -0.303657,0 -0.477175,0.173518 -0.173518,0.173518 -0.216897,0.347036 0.04338,0.08676 0.216897,0.173518 0.216898,0.08676 0.563934,0.08676 z m -4.511468,1.388144 q -0.216898,0 -0.477175,-0.08676 -0.260277,-0.08676 -0.477174,-0.130138 V 53.92611 q 0.08676,-0.08676 0.347036,-0.303656 0.260277,-0.216898 0.607313,-0.216898 0.86759,0 0.86759,0.563934 0,0.563933 -0.86759,0.563934 z m 26.374736,35.614571 h 1.952078 q -2.472632,-1.865319 -4.294571,-4.294571 -1.778559,-2.472631 -1.778559,-5.769473 0,-3.426981 1.778559,-5.942992 1.821939,-2.516011 4.33795,-3.947535 1.691801,-0.997728 3.253463,-1.301385 1.561662,-0.347036 2.906427,-0.433795 0.910969,-0.04338 1.518282,-0.173518 0.650693,-0.173518 0.650693,-0.390415 0,-0.433795 -0.520554,-0.520554 -0.477175,-0.08676 -1.518283,-0.08676 -2.385872,0 -4.815124,0.997728 -2.385873,0.954349 -4.38133,2.732909 -1.995457,1.73518 -3.210083,4.077673 -1.214626,2.299114 -1.214626,4.988643 0,1.865318 0.82421,3.817396 0.86759,1.952077 2.082216,3.600498 1.258006,1.648421 2.429252,2.646151 z m 3.383602,0 1.431523,-0.04338 q 0.390416,-1.171246 0.520554,-2.906426 0.130139,-1.73518 0.130139,-3.47036 0,-3.600499 -0.91097,-6.767202 -0.910969,-3.210084 -2.472631,-5.856233 -1.952078,1.301385 -3.340222,3.166704 0.997728,0.303656 1.605041,0.780831 0.607313,0.477174 0.86759,0.82421 l -0.650692,0.520554 q -0.216898,-0.303656 -0.780831,-0.694072 -0.563934,-0.433795 -1.518283,-0.737451 -1.518282,2.429252 -1.518282,5.118781 0,2.212354 0.910969,4.034293 0.954349,1.821939 2.429252,3.296842 1.518283,1.474903 3.296843,2.732909 z m -18.696566,0.04338 h 1.908699 q 0.130138,-0.08676 0.347036,-0.260277 0.260277,-0.173518 0.477174,-0.303656 l 1.821939,0.520554 h 9.500111 Q 52.883747,88.976749 51.75588,87.328328 50.628013,85.679907 49.847182,83.814589 49.10973,81.905891 49.10973,80.083952 q 0,-2.819668 1.344765,-5.379058 -1.518283,0.216897 -2.385873,1.171246 -0.86759,0.91097 -1.214626,2.082216 -0.303656,1.127867 -0.216897,1.865319 0.173518,1.084487 0.997728,2.516011 0.824211,1.388144 1.865319,2.776288 1.041108,1.344764 1.952077,2.255734 l -0.260277,0.997728 q -0.86759,0.08676 -2.255734,0.216898 -1.388144,0.130138 -2.906426,0.260277 -1.474903,0.130138 -2.60277,0.216897 -0.173518,-0.260277 -0.694072,-0.520554 -0.477175,-0.260277 -1.171247,-0.260277 -0.737452,0 -1.084488,0.433795 -0.303656,0.390416 -0.433795,0.86759 -0.08676,0.433795 -0.08676,0.607313 z"
       style="font-style:normal;font-variant:normal;font-weight:normal;font-stretch:normal;font-size:43.3795px;line-height:1.25;font-family:'Noto Sans Egyptian Hieroglyphs';-inkscape-font-specification:'Noto Sans Egyptian Hieroglyphs, Normal';font-variant-ligatures:normal;font-variant-caps:normal;font-variant-numeric:normal;font-variant-east-asian:normal;fill:#4d4d4d;fill-opacity:1;stroke:none;stroke-width:1.08449"
       id="path14" />
  </g>
</svg>
